<svg xmlns="http://www.w3.org/2000/svg" viewBox="0 0 159 109">
    <g transform="translate(0,109) scale(0.1,-0.1)" fill="#333" stroke="none">
        <path d="M537 1080 c-68 -21 -137 -104 -137 -163 0 -20 -11 -30 -54 -51 -105
-51 -253 -225 -314 -368 -22 -52 -26 -78 -27 -153 0 -80 3 -97 29 -148 36 -71
99 -130 174 -165 47 -22 72 -26 137 -26 106 0 185 34 255 111 47 51 90 139 90
184 0 18 4 20 28 13 34 -11 119 -11 153 -1 25 8 27 6 33 -33 10 -65 50 -132
110 -188 70 -63 134 -87 237 -87 65 0 85 5 141 33 144 71 222 228 189 381 -14
68 -69 177 -125 250 -62 80 -172 180 -223 203 -32 14 -43 25 -43 41 -1 42 -38
105 -80 136 -83 60 -185 50 -257 -24 -22 -24 -44 -57 -48 -74 l-7 -31 -26 52
c-34 67 -89 107 -157 113 -28 2 -63 0 -78 -5z m-76 -516 c85 -43 132 -120 132
-219 1 -135 -113 -245 -252 -245 -89 0 -191 71 -227 156 -36 86 -2 225 67 276
96 72 181 82 280 32z m374 21 c62 -30 77 -107 30 -158 -30 -32 -90 -37 -130
-11 -59 39 -49 140 17 169 42 18 44 18 83 0z m472 0 c180 -53 243 -261 122
-399 -137 -156 -388 -87 -431 118 -27 125 65 260 193 285 62 12 60 13 116 -4z"/>
        <path d="M212 403 c-31 -57 0 -143 64 -180 43 -25 79 -29 121 -12 l28 11 -30
11 c-76 26 -146 96 -164 165 -7 27 -8 27 -19 5z" fill="#0ea9ec"/>
        <path d="M1106 404 c-3 -9 -6 -35 -6 -58 0 -102 117 -179 200 -131 23 13 23
14 4 15 -52 1 -160 96 -171 152 -7 34 -19 44 -27 22z" fill="#e70f0f"/>
    </g>
</svg>