<svg xmlns="http://www.w3.org/2000/svg" viewBox="0 0 500 500">
    <g transform="translate(0,500) scale(0.1,-0.1)" fill="white" stroke="none">
        <path d="M3739 3807 c-60 -40 -59 -64 11 -300 34 -115 59 -211 57 -213 -6 -6
-149 -47 -522 -150 -170 -47 -546 -152 -835 -234 -615 -173 -1207 -339 -1267
-353 -24 -6 -45 -8 -49 -5 -3 3 -30 93 -60 199 -30 106 -61 203 -69 216 -41
61 -113 67 -167 13 -40 -41 -37 -73 31 -300 39 -131 54 -197 47 -201 -6 -4
-162 -48 -346 -99 -486 -133 -466 -127 -490 -158 -30 -37 -24 -113 12 -148 46
-47 66 -44 469 69 205 58 435 122 509 142 74 20 372 104 661 186 290 82 531
149 537 149 6 0 -124 -272 -289 -605 -164 -332 -299 -611 -299 -620 0 -13 -37
-15 -300 -15 -332 0 -356 -4 -384 -59 -24 -45 -20 -76 15 -116 l31 -35 1388 0
1388 0 30 25 c57 48 47 124 -21 165 -30 19 -52 20 -332 20 l-300 1 -65 137
c-35 75 -180 370 -322 654 -142 285 -258 522 -258 528 0 5 24 16 53 24 406
115 1201 337 1487 415 630 173 792 220 813 238 28 26 47 67 47 104 0 37 -56
99 -90 99 -18 0 -192 -46 -758 -202 -42 -12 -77 -17 -81 -12 -5 5 -34 99 -64
209 -49 175 -60 203 -87 228 -38 34 -84 36 -131 4z"/>
    </g>
</svg>