<svg xmlns="http://www.w3.org/2000/svg" viewBox="0 0 500 500">
    <g transform="translate(0,500) scale(0.1,-0.1)" fill="white" stroke="none">
        <path d="M2372 4629 c-60 -29 -72 -42 -129 -134 -7 -11 -24 -40 -38 -65 -14
-25 -29 -52 -35 -60 -5 -8 -30 -51 -55 -95 -25 -44 -50 -87 -55 -95 -6 -8 -21
-35 -35 -60 -14 -25 -29 -52 -35 -60 -5 -8 -28 -49 -52 -90 -23 -41 -49 -87
-58 -102 -8 -14 -27 -48 -43 -75 -15 -26 -32 -55 -37 -63 -10 -16 -73 -124
-100 -172 -16 -30 -136 -237 -174 -303 -13 -22 -40 -68 -60 -102 -20 -35 -52
-91 -72 -125 -21 -35 -44 -76 -52 -93 -8 -16 -20 -37 -27 -45 -7 -8 -27 -42
-45 -75 -17 -33 -47 -85 -66 -115 -18 -30 -36 -62 -40 -70 -7 -15 -85 -150
-104 -180 -6 -8 -21 -35 -35 -60 -14 -25 -29 -52 -35 -60 -5 -8 -28 -49 -52
-90 -23 -41 -49 -87 -58 -102 -8 -14 -26 -46 -39 -70 -13 -23 -27 -45 -31 -48
-3 -3 -22 -34 -42 -70 -19 -36 -59 -107 -89 -158 -30 -50 -72 -123 -94 -162
-94 -164 -222 -384 -252 -433 -18 -28 -36 -59 -40 -67 -8 -18 -89 -159 -103
-180 -5 -8 -19 -33 -31 -55 -12 -22 -36 -65 -55 -95 -18 -30 -41 -79 -50 -109
-17 -52 -17 -58 1 -125 22 -86 61 -137 141 -186 l58 -35 2231 3 c2532 4 2298
-5 2386 90 58 62 83 124 82 202 -1 49 -31 145 -51 160 -4 3 -20 30 -36 60 -16
30 -38 66 -48 79 -10 13 -18 27 -18 31 0 4 -31 60 -70 124 -38 65 -70 121 -70
126 0 5 -6 15 -14 22 -7 8 -23 32 -35 54 -12 21 -25 46 -31 54 -10 16 -85 148
-110 193 -15 27 -125 216 -166 286 -24 41 -80 137 -133 228 -128 222 -222 384
-287 493 -41 69 -79 136 -85 150 -6 14 -16 32 -24 40 -7 8 -27 42 -45 75 -17
33 -47 85 -66 115 -18 30 -41 69 -49 85 -8 17 -49 86 -89 155 -41 69 -113 193
-161 275 -47 83 -106 184 -130 225 -25 41 -57 97 -72 123 -16 27 -35 61 -43
75 -9 15 -35 61 -58 102 -24 41 -47 82 -52 90 -6 8 -19 33 -31 54 -12 22 -28
46 -35 54 -8 7 -14 18 -14 23 0 8 -58 111 -100 179 -6 8 -21 35 -35 60 -78
138 -98 164 -163 197 -89 46 -172 47 -260 2z m156 -520 c34 -63 85 -154 109
-191 13 -21 23 -42 23 -47 0 -5 6 -16 13 -23 7 -7 20 -26 28 -43 16 -30 132
-237 150 -265 5 -8 20 -35 34 -60 14 -25 41 -72 60 -105 19 -33 49 -85 66
-115 16 -30 43 -77 60 -105 16 -27 32 -57 36 -65 4 -8 26 -48 50 -88 24 -40
43 -77 43 -82 0 -5 6 -15 14 -22 8 -8 26 -37 40 -64 15 -27 41 -74 59 -105 17
-30 57 -99 87 -153 30 -54 67 -118 82 -144 15 -26 40 -69 55 -97 15 -27 33
-59 40 -70 6 -11 20 -36 31 -55 10 -19 47 -83 80 -142 34 -60 62 -112 62 -117
0 -5 4 -11 9 -13 5 -2 20 -25 35 -53 15 -27 37 -68 50 -90 45 -77 119 -210
135 -240 8 -16 21 -36 28 -43 7 -7 13 -18 13 -24 0 -5 8 -22 19 -36 10 -15 34
-55 52 -89 19 -35 46 -84 61 -110 57 -101 84 -147 98 -172 78 -137 119 -209
143 -249 34 -59 40 -72 36 -76 -2 -2 -869 -7 -1926 -10 l-1923 -8 18 39 c9 21
24 49 33 63 21 33 71 119 87 150 7 14 20 39 30 55 9 17 51 91 92 164 41 73 87
154 101 179 14 26 41 74 60 108 19 34 58 106 88 160 30 54 58 101 63 102 4 2
8 8 8 12 0 8 250 462 280 510 12 19 92 161 201 356 19 34 68 122 109 195 41
73 82 145 90 160 8 15 40 71 70 125 30 53 69 122 86 153 17 31 45 81 63 111
17 30 38 69 46 85 8 17 33 59 54 95 22 36 53 92 71 125 34 64 43 80 160 287
41 72 81 145 88 161 15 33 22 30 50 -24z"/>
        <path d="M1990 2475 l-685 -685 90 -90 89 -89 -138 -3 -138 -3 -39 -70 c-21
-38 -47 -88 -59 -110 -11 -22 -31 -58 -43 -80 -46 -79 -65 -113 -155 -276 -51
-92 -92 -169 -92 -173 0 -3 162 -6 360 -6 l360 0 0 65 0 65 52 0 c48 0 56 -4
98 -43 119 -114 268 -114 388 2 41 39 46 41 103 41 57 0 62 -2 108 -45 124
-116 278 -115 396 3 41 41 44 42 109 42 65 0 68 -1 114 -44 114 -107 246 -114
351 -21 62 56 81 65 138 65 66 0 81 -14 85 -75 l3 -50 363 -5 c199 -3 362 -1
362 3 0 9 -47 101 -91 177 -18 30 -41 71 -51 90 -11 19 -32 58 -48 85 -16 28
-35 64 -44 80 -8 17 -36 66 -61 110 -24 44 -56 101 -70 128 l-26 47 -167 -2
-167 -3 -3 -140 -3 -140 -77 0 c-59 0 -88 -5 -124 -23 -27 -12 -48 -26 -48
-32 0 -5 -17 -22 -37 -37 -30 -23 -47 -28 -96 -29 -56 -1 -61 1 -105 43 -63
59 -123 85 -194 86 -72 0 -127 -23 -195 -84 -51 -46 -54 -47 -118 -47 -65 0
-67 1 -118 48 -65 59 -113 80 -186 80 -54 0 -161 -38 -161 -57 0 -4 -17 -21
-38 -38 -31 -25 -47 -30 -95 -32 -49 -1 -62 3 -90 25 -17 15 -38 35 -45 44
-21 28 -103 59 -159 61 l-53 1 0 130 0 131 676 676 677 677 -105 106 c-58 58
-107 106 -109 106 -2 0 -312 -308 -689 -685z m-286 -1291 c60 -58 95 -72 181
-72 82 0 139 25 194 82 62 64 141 61 218 -8 77 -69 103 -79 202 -74 92 4 107
11 193 85 44 38 74 47 130 40 42 -6 49 -10 133 -81 44 -37 51 -40 125 -44 89
-5 135 11 200 73 60 56 102 67 169 44 30 -11 31 -13 31 -67 l0 -57 -79 3 c-91
4 -111 -4 -191 -72 -87 -74 -147 -74 -225 0 -63 60 -98 74 -192 74 -85 0 -139
-20 -178 -65 -49 -57 -135 -81 -188 -54 -12 6 -38 26 -57 44 -65 61 -109 77
-203 74 -81 -4 -85 -5 -131 -44 -83 -70 -116 -86 -165 -82 -44 5 -51 9 -137
82 -44 37 -52 40 -120 43 l-74 4 0 63 c0 58 2 64 23 67 44 7 94 -14 141 -58z"/>
    </g>
</svg>