<svg xmlns="http://www.w3.org/2000/svg" viewBox="0 0 500 500">
    <g transform="translate(0,500) scale(0.1,-0.1)" fill="white" stroke="none">
        <path d="M2339 4933 c-49 -8 -66 -39 -77 -143 -12 -117 -27 -135 -127 -145
-81 -9 -87 -5 -136 101 -49 102 -66 119 -118 110 -111 -17 -124 -38 -109 -168
9 -84 9 -101 -5 -121 -19 -30 -127 -72 -161 -63 -15 4 -47 35 -82 81 -31 42
-65 80 -76 86 -25 13 -59 5 -109 -26 -55 -36 -59 -62 -21 -168 25 -69 29 -93
21 -115 -13 -36 -120 -106 -152 -98 -12 3 -54 32 -92 65 -89 76 -121 80 -183
23 -56 -51 -54 -74 9 -179 40 -67 50 -89 44 -111 -9 -37 -96 -122 -125 -122
-12 0 -63 21 -111 47 -105 55 -124 53 -176 -15 -48 -63 -44 -80 37 -168 55
-59 70 -82 70 -106 0 -53 -67 -148 -104 -148 -12 0 -59 9 -106 21 -113 30
-133 24 -167 -46 -37 -75 -28 -96 70 -164 98 -67 106 -82 82 -162 -28 -91 -46
-101 -165 -93 -121 8 -134 2 -156 -73 -15 -51 -15 -59 -1 -89 9 -18 26 -35 39
-39 13 -4 55 -20 94 -36 85 -36 95 -51 85 -138 -10 -86 -27 -100 -137 -118
-49 -7 -99 -20 -111 -28 -43 -29 -42 -138 2 -173 14 -11 57 -24 109 -31 111
-17 125 -29 135 -111 8 -67 2 -102 -21 -117 -7 -4 -49 -22 -93 -39 -105 -41
-121 -62 -106 -137 18 -83 31 -91 156 -88 58 1 113 -3 124 -8 24 -13 65 -133
57 -166 -4 -16 -35 -43 -91 -81 -107 -71 -117 -99 -65 -182 34 -55 55 -58 165
-27 116 33 129 30 174 -48 46 -81 43 -98 -39 -183 -80 -82 -87 -107 -45 -165
54 -72 80 -75 185 -19 104 55 125 53 189 -14 28 -30 51 -63 51 -74 0 -10 -22
-56 -50 -101 -63 -104 -64 -126 -5 -180 63 -58 83 -56 179 24 92 77 110 80
184 29 74 -49 77 -64 42 -170 -43 -127 -40 -143 37 -183 78 -39 97 -31 178 83
54 75 78 83 161 49 85 -33 90 -45 76 -165 -13 -116 -3 -142 61 -159 47 -13 91
-14 108 -3 7 4 31 49 56 101 51 109 63 118 150 102 101 -18 103 -21 119 -178
9 -87 32 -111 107 -111 80 0 94 16 122 133 26 113 37 125 110 129 115 4 121 0
160 -123 24 -74 34 -93 56 -105 35 -18 111 -8 144 18 24 18 25 25 25 124 0 97
2 107 23 128 27 27 122 52 160 42 19 -4 40 -30 77 -92 62 -101 82 -113 150
-88 87 32 95 52 69 160 -10 43 -18 91 -19 105 0 30 28 58 87 88 70 35 87 30
167 -54 83 -86 105 -92 174 -48 67 44 70 71 22 171 -54 113 -53 129 14 186 70
61 89 60 195 -9 46 -30 88 -55 93 -55 20 0 67 31 92 60 39 48 35 81 -23 154
-87 111 -88 119 -26 199 54 69 69 71 180 27 99 -39 127 -39 158 3 66 88 61
112 -38 195 -45 38 -77 73 -81 89 -9 35 47 150 79 162 13 5 60 2 119 -7 118
-19 137 -11 163 68 25 76 14 95 -95 153 -100 53 -107 65 -95 144 9 63 30 102
58 107 12 3 59 7 105 10 45 3 91 10 101 15 38 21 55 127 26 168 -10 14 -42 28
-101 44 -123 32 -134 43 -134 134 0 95 11 107 120 136 47 12 96 31 108 43 21
18 23 28 20 79 -6 88 -24 101 -149 108 -82 5 -104 10 -120 26 -25 25 -48 146
-33 171 6 9 49 38 95 64 46 26 90 56 97 65 26 34 -9 141 -52 161 -18 8 -50 6
-125 -6 -101 -16 -101 -16 -124 6 -31 29 -71 126 -63 155 3 12 39 50 80 85 42
35 78 73 82 87 9 35 -40 120 -78 136 -26 11 -39 8 -123 -26 -72 -29 -99 -35
-119 -29 -31 11 -106 109 -106 140 0 12 27 57 60 100 74 96 76 117 19 179 -56
61 -78 60 -181 -10 -44 -30 -88 -55 -97 -55 -41 0 -141 87 -141 123 0 14 18
65 40 115 33 75 39 95 30 116 -11 29 -93 86 -123 86 -10 0 -56 -36 -102 -80
-46 -44 -91 -80 -100 -80 -8 0 -43 14 -76 30 -82 42 -87 57 -62 177 25 114 20
133 -43 163 -86 40 -115 25 -184 -95 -18 -31 -43 -63 -56 -72 -23 -15 -30 -14
-90 2 -97 26 -104 38 -104 161 0 91 -2 105 -21 122 -36 34 -130 43 -160 16
-10 -9 -32 -58 -49 -109 -37 -111 -48 -119 -145 -113 -81 5 -98 21 -115 106
-23 116 -30 131 -60 147 -28 15 -48 16 -101 8z m-192 -734 c40 -15 73 -48 94
-94 17 -36 19 -69 19 -325 0 -341 4 -329 -111 -374 -89 -34 -183 -88 -261
-149 -62 -48 -95 -61 -126 -49 -57 22 -480 272 -508 301 -60 61 -70 150 -22
215 39 55 168 164 283 241 129 87 278 160 425 209 110 37 160 43 207 25z m920
-25 c202 -67 389 -171 563 -311 148 -120 189 -184 171 -266 -19 -82 -32 -92
-330 -263 -159 -91 -232 -128 -255 -128 -24 0 -54 16 -116 63 -83 62 -173 112
-263 146 -89 33 -87 26 -87 363 0 279 1 298 21 339 26 54 87 93 146 93 24 0
91 -16 150 -36z m-408 -1049 c163 -39 337 -174 414 -322 170 -327 47 -717
-279 -881 -103 -52 -167 -66 -294 -66 -141 1 -239 29 -351 102 -460 301 -357
1001 171 1159 91 27 243 30 339 8z m-1643 -59 c65 -23 488 -272 507 -299 23
-30 24 -45 8 -172 -9 -76 -9 -123 0 -200 13 -113 13 -138 -1 -164 -5 -10 -121
-83 -257 -162 -223 -128 -254 -143 -304 -147 -69 -5 -127 21 -159 73 -59 95
-98 481 -71 701 17 137 48 267 74 306 25 37 97 78 138 78 15 0 44 -6 65 -14z
m3110 -5 c71 -32 99 -92 129 -280 35 -219 29 -431 -16 -649 -24 -112 -45 -154
-99 -190 -29 -20 -45 -23 -96 -20 -56 3 -75 12 -287 133 -125 72 -242 142
-259 156 -36 30 -36 28 -23 227 5 74 4 142 -4 201 -11 76 -10 93 2 118 11 21
76 63 256 166 132 76 253 142 268 147 45 14 85 11 129 -9z m-2278 -1293 c142
-104 232 -156 326 -189 21 -8 49 -27 63 -43 l24 -29 -3 -296 c-3 -268 -5 -300
-22 -334 -28 -56 -84 -90 -149 -89 -108 0 -392 120 -572 241 -108 72 -251 194
-282 240 -45 67 -39 151 15 212 40 44 499 308 538 308 17 1 45 -9 62 -21z
m1642 -118 c139 -79 257 -154 272 -171 36 -43 50 -102 36 -158 -13 -52 -75
-117 -213 -224 -182 -141 -434 -265 -623 -308 -80 -18 -155 18 -192 92 -19 35
-20 59 -20 336 0 342 -3 329 88 363 89 33 179 84 267 150 57 42 89 60 110 60
21 0 108 -45 275 -140z"/>
</g>
</svg>
