<svg xmlns="http://www.w3.org/2000/svg" viewBox="0 0 500 500">
    <g transform="translate(0,500) scale(0.1,-0.1)" fill="white" stroke="none">
        <path d="M1810 4065 l0 -795 -280 0 -280 0 -2 277 -3 277 -220 133 c-121 73
-225 132 -230 130 -6 -1 -108 -60 -228 -132 l-217 -130 0 -492 0 -493 -175 0
-175 0 0 -483 0 -483 87 -30 c75 -24 103 -29 188 -29 87 1 113 5 200 35 55 18
105 35 110 37 6 1 48 14 95 29 73 22 98 25 175 21 56 -3 115 -13 155 -27 36
-12 72 -24 80 -26 8 -2 56 -18 105 -36 80 -29 102 -32 195 -33 103 0 108 1
275 60 167 59 172 60 275 59 89 0 118 -4 190 -29 47 -16 88 -30 93 -31 4 -1 9
-3 12 -4 3 -1 8 -3 13 -4 4 -2 41 -13 82 -27 105 -34 235 -34 340 0 41 14 78
25 83 27 4 1 9 3 12 4 3 1 8 3 13 4 4 1 45 15 92 31 72 25 101 29 190 29 103
1 108 0 275 -59 167 -59 172 -60 275 -60 93 1 115 4 195 33 50 18 97 34 105
36 8 2 44 14 80 26 40 14 99 24 155 27 77 4 102 1 175 -21 47 -15 90 -28 95
-29 6 -2 55 -19 110 -37 87 -30 113 -34 200 -35 85 0 113 5 188 29 l87 30 0
178 0 178 -210 0 -210 0 -2 965 -3 965 -155 -94 c-175 -107 -371 -228 -590
-365 l-150 -93 0 -419 0 -419 -175 0 -175 0 0 560 0 560 -210 0 -210 0 0 485
0 485 -550 0 -550 0 0 -795z"/>
        <path d="M725 1513 c-11 -3 -47 -14 -80 -25 -33 -11 -67 -21 -75 -23 -8 -2
-44 -14 -80 -28 -108 -41 -199 -53 -289 -38 -42 7 -104 24 -139 37 l-62 23 0
-208 0 -209 58 -21 c99 -36 148 -44 245 -39 65 4 114 13 167 32 41 15 83 29
93 31 10 2 42 13 70 23 29 11 84 25 124 32 95 17 164 5 363 -62 151 -51 158
-52 270 -53 115 0 115 0 285 59 162 57 174 60 265 59 77 0 111 -5 180 -28 47
-16 88 -30 93 -31 4 -1 9 -3 12 -4 3 -1 8 -3 13 -4 4 -1 39 -13 77 -26 59 -21
88 -25 185 -25 97 0 126 4 185 25 39 13 73 25 78 26 4 1 9 3 12 4 3 1 8 3 13
4 4 1 45 15 92 31 69 23 103 28 180 28 91 1 103 -2 265 -59 170 -59 170 -59
285 -59 112 1 119 2 270 53 199 67 268 79 363 62 40 -7 100 -23 135 -36 34
-13 62 -21 62 -19 0 2 17 -3 38 -12 164 -69 296 -72 465 -11 l57 20 0 209 0
208 -62 -23 c-35 -13 -97 -30 -139 -37 -90 -15 -181 -3 -289 38 -36 14 -72 26
-80 28 -8 2 -44 14 -80 26 -55 20 -84 24 -185 23 -106 0 -129 -3 -195 -28 -41
-15 -79 -29 -85 -30 -5 -1 -48 -15 -95 -31 -69 -23 -103 -28 -180 -29 -91 0
-102 3 -265 59 l-170 60 -120 -1 c-110 0 -127 -3 -205 -32 -47 -18 -85 -32
-85 -31 0 1 -38 -11 -85 -26 -69 -23 -103 -28 -180 -28 -77 0 -111 5 -180 28
-47 15 -86 27 -87 27 -2 0 -40 13 -85 31 -76 28 -93 31 -203 31 l-120 1 -170
-60 c-163 -56 -174 -59 -265 -59 -77 1 -111 6 -180 29 -47 16 -89 30 -95 31
-5 1 -44 15 -85 29 -59 22 -97 28 -180 31 -58 1 -114 0 -125 -3z"/>
        <path d="M745 684 c-11 -3 -51 -15 -90 -26 -38 -12 -74 -23 -80 -24 -5 -2 -50
-18 -100 -36 -81 -29 -101 -33 -200 -32 -94 0 -121 4 -186 27 -41 15 -79 27
-82 27 -4 0 -6 -93 -5 -206 l3 -207 60 -22 c104 -39 192 -50 282 -35 43 7 107
23 143 37 36 13 72 26 80 28 8 2 44 13 80 26 54 20 85 24 180 24 102 0 125 -3
200 -30 47 -16 87 -30 90 -30 3 -1 43 -14 90 -30 69 -23 103 -28 180 -28 90 0
103 2 265 59 169 58 171 59 285 59 102 0 125 -3 200 -30 47 -16 87 -30 90 -30
3 -1 43 -14 90 -30 120 -40 240 -40 360 0 47 16 87 29 90 30 3 0 43 14 90 30
75 27 98 30 200 30 113 0 117 -1 280 -57 233 -80 294 -83 470 -25 36 11 70 22
75 23 6 1 44 15 85 29 115 41 247 45 360 11 47 -15 92 -28 100 -30 8 -3 44
-16 80 -29 102 -39 203 -52 291 -37 41 7 101 22 134 35 l60 22 3 207 c1 113
-1 206 -5 206 -3 0 -41 -12 -82 -27 -65 -23 -92 -27 -186 -27 -99 -1 -119 3
-200 32 -49 18 -94 34 -100 36 -5 1 -44 14 -85 27 -111 36 -244 33 -360 -6
-47 -16 -89 -30 -95 -31 -5 -1 -46 -15 -90 -30 -68 -24 -96 -29 -185 -29 -103
0 -108 1 -275 60 -167 58 -172 60 -275 59 -89 0 -118 -5 -190 -29 -47 -16 -87
-29 -90 -30 -3 -1 -43 -14 -90 -30 -73 -25 -100 -29 -190 -29 -90 0 -117 4
-190 29 -47 16 -87 29 -90 30 -3 1 -43 14 -90 30 -73 25 -100 29 -190 29 -103
0 -109 -1 -275 -59 -166 -59 -172 -60 -275 -60 -89 0 -117 5 -185 29 -44 15
-84 29 -90 30 -5 1 -48 15 -95 31 -82 27 -223 42 -275 29z"/>
    </g>
</svg>