<svg xmlns="http://www.w3.org/2000/svg" viewBox="0 0 500 500">
    <g transform="translate(0,500) scale(0.1,-0.1)" fill="white" stroke="none">
        <path d="M920 2750 l0 -2079 -89 -3 -89 -3 145 -275 c79 -151 148 -278 152
-282 5 -6 301 540 301 557 0 3 -36 5 -80 5 l-80 0 0 320 0 320 145 0 145 0 0
180 0 180 -145 0 -145 0 0 350 0 350 145 0 145 0 0 180 0 180 -145 0 -145 0 0
350 0 350 145 0 145 0 0 180 0 180 -145 0 -145 0 0 340 0 339 143 3 142 3 3
178 2 177 -275 0 -275 0 0 -2080z"/>
        <path d="M1650 2750 l0 -2079 -75 -3 -74 -3 143 -273 c79 -151 147 -277 152
-282 5 -5 71 109 154 267 80 152 147 280 148 285 2 4 -35 8 -82 8 l-86 0 0
320 0 320 135 0 135 0 0 180 0 180 -135 0 -135 0 0 350 0 350 135 0 135 0 0
180 0 180 -135 0 -135 0 0 350 0 350 135 0 135 0 0 180 0 180 -135 0 -135 0 0
340 0 339 133 3 132 3 3 178 2 177 -275 0 -275 0 0 -2080z"/>
        <path d="M2380 2750 l0 -2080 -65 0 c-36 0 -65 -3 -65 -7 0 -15 293 -564 298
-558 3 3 72 130 152 283 l146 277 -88 3 -88 3 0 319 0 320 145 0 145 0 0 180
0 180 -145 0 -145 0 0 350 0 350 145 0 145 0 0 180 0 180 -145 0 -145 0 0 350
0 350 145 0 145 0 0 180 0 180 -145 0 -145 0 0 340 0 340 145 0 145 0 0 180 0
180 -290 0 -290 0 0 -2080z"/>
        <path d="M3148 2753 l-3 -2078 -72 -3 c-40 -2 -73 -5 -73 -8 0 -16 296 -562
301 -556 4 4 73 131 152 282 l145 275 -86 5 -87 5 -3 318 -2 317 140 0 140 0
0 180 0 179 -137 3 -138 3 -3 348 -2 347 140 0 140 0 0 180 0 179 -137 3 -138
3 -3 348 -2 347 140 0 140 0 0 180 0 179 -137 3 -138 3 -3 338 -2 337 140 0
140 0 0 180 0 180 -275 0 -275 0 -2 -2077z"/>
        <path d="M3880 2750 l0 -2079 -69 -3 -70 -3 145 -275 c80 -151 148 -278 152
-282 6 -6 302 540 302 557 0 3 -40 5 -90 5 l-90 0 0 2080 0 2080 -140 0 -140
0 0 -2080z"/>
    </g>
</svg>