<svg xmlns="http://www.w3.org/2000/svg" viewBox="0 0 500 500">
    <g transform="translate(0,500) scale(0.1,-0.1)" fill="white" stroke="none">
        <path d="M3113 4162 c-30 -16 -125 -87 -399 -299 -179 -138 -525 -404 -654
-502 -69 -52 -152 -116 -185 -141 -33 -26 -100 -77 -150 -115 -167 -128 -280
-214 -390 -300 -60 -46 -162 -124 -225 -172 -63 -48 -227 -173 -365 -278 -137
-105 -308 -236 -380 -290 -257 -195 -295 -227 -295 -244 0 -11 234 -252 551
-567 303 -302 552 -550 553 -552 4 -3 170 144 315 278 27 25 73 66 102 92 30
26 205 183 389 349 184 165 358 320 385 345 79 70 126 112 540 487 215 194
417 375 450 403 33 28 82 70 109 95 27 24 252 227 500 451 248 224 474 428
503 454 28 25 75 68 104 95 28 27 54 49 56 49 8 0 193 173 193 180 0 9 -50 15
-640 85 -256 30 -519 62 -585 71 -370 48 -436 52 -482 26z"/>
        <path d="M4705 3792 c-99 -89 -204 -184 -233 -210 -29 -26 -75 -68 -101 -94
-27 -27 -52 -48 -55 -48 -4 0 -177 -155 -386 -345 -209 -190 -382 -345 -386
-345 -3 0 -26 -22 -51 -50 -25 -28 -50 -50 -55 -50 -6 0 -32 -20 -57 -45 -25
-25 -224 -206 -442 -403 -218 -196 -418 -377 -445 -402 -27 -24 -77 -67 -110
-95 -34 -29 -81 -70 -105 -92 -24 -22 -199 -180 -389 -351 -190 -171 -366
-332 -391 -357 -25 -25 -51 -45 -57 -45 -6 0 -30 -22 -54 -50 -24 -27 -48 -50
-53 -50 -12 0 -85 -71 -85 -82 0 -7 225 70 1365 467 300 105 760 265 1380 480
839 292 869 303 888 326 16 20 17 67 16 698 -1 372 -4 818 -8 991 l-6 314
-180 -162z"/>
    </g>
</svg>