<svg xmlns="http://www.w3.org/2000/svg" viewBox="0 0 500 500">
    <g transform="translate(0,500) scale(0.1,-0.1)" fill="white" stroke="none">
        <path d="M95 3969 c-17 -4 -44 -22 -60 -39 l-30 -31 -3 -357 c-3 -385 -2 -393
50 -437 l30 -25 709 0 709 0 38 34 37 34 0 376 0 375 -29 30 c-17 17 -46 36
-65 41 -45 12 -1344 12 -1386 -1z"/>
        <path d="M1806 3970 c-15 -5 -37 -17 -48 -27 -45 -40 -48 -63 -48 -418 0 -372
2 -388 62 -425 32 -19 49 -20 736 -20 l702 0 38 34 37 34 3 361 c3 401 2 409
-61 446 -31 19 -56 20 -712 22 -374 1 -693 -2 -709 -7z"/>
        <path d="M3515 3969 c-17 -4 -44 -22 -60 -39 l-30 -31 -3 -357 c-3 -385 -2
-393 50 -437 l30 -25 708 0 708 0 30 25 c52 44 53 52 50 437 l-3 357 -29 30
c-17 17 -46 36 -65 41 -45 12 -1344 12 -1386 -1z"/>
        <path d="M0 2500 l0 -450 320 0 c298 0 323 1 359 20 70 35 71 43 71 432 0 313
-2 346 -18 377 -37 69 -48 71 -409 71 l-323 0 0 -450z"/>
        <path d="M943 2935 c-18 -8 -42 -29 -53 -47 -19 -31 -20 -50 -20 -388 0 -338
1 -357 20 -388 39 -64 20 -62 770 -62 655 0 682 1 719 20 70 35 71 43 71 432
0 384 -1 393 -71 430 -32 17 -74 18 -719 18 -565 -1 -691 -3 -717 -15z"/>
        <path d="M2653 2935 c-18 -8 -42 -29 -53 -47 -19 -31 -20 -50 -20 -386 0 -397
0 -396 72 -433 36 -18 68 -19 718 -19 650 0 682 1 718 19 72 37 72 36 72 433
0 336 -1 355 -20 386 -39 64 -19 62 -772 62 -564 -1 -689 -3 -715 -15z"/>
        <path d="M4334 2931 c-66 -40 -64 -28 -64 -432 0 -361 0 -367 22 -394 41 -52
61 -55 398 -55 l310 0 0 450 0 450 -317 0 c-295 0 -320 -1 -349 -19z"/>
        <path d="M56 1899 c-55 -44 -56 -49 -56 -424 0 -375 1 -380 56 -424 27 -21 32
-21 735 -21 l709 0 38 34 37 34 0 377 0 377 -37 34 -38 34 -709 0 c-703 0
-708 0 -735 -21z"/>
        <path d="M1765 1898 c-53 -41 -55 -59 -55 -423 0 -364 2 -382 55 -423 l28 -22
708 0 709 0 38 34 37 34 0 377 0 377 -37 34 -38 34 -709 0 -708 0 -28 -22z"/>
        <path d="M3462 1886 l-37 -34 0 -377 0 -377 37 -34 38 -34 709 0 c703 0 708 0
735 21 55 44 56 49 56 424 0 375 -1 380 -56 424 -27 21 -32 21 -735 21 l-709
0 -38 -34z"/>
        <path d="M0 450 l0 -450 320 0 c298 0 323 1 359 20 70 35 71 43 71 432 0 313
-2 346 -18 377 -37 69 -48 71 -409 71 l-323 0 0 -450z"/>
        <path d="M943 885 c-18 -8 -42 -29 -53 -47 -19 -31 -20 -50 -20 -388 0 -338 1
-357 20 -388 39 -64 20 -62 772 -62 643 0 685 1 717 18 70 37 71 46 71 430 0
389 -1 397 -71 432 -37 19 -63 20 -721 20 -564 -1 -689 -3 -715 -15z"/>
        <path d="M2653 884 c-18 -9 -42 -31 -53 -49 -19 -31 -20 -49 -20 -386 0 -337
1 -356 20 -387 39 -64 20 -62 770 -62 751 0 729 -2 768 63 21 33 22 43 22 387
0 336 -1 354 -20 385 -42 67 -14 65 -772 65 -605 0 -687 -2 -715 -16z"/>
        <path d="M4322 883 c-19 -9 -41 -32 -53 -54 -18 -36 -19 -61 -19 -373 0 -389
3 -405 74 -437 37 -17 71 -19 359 -19 l317 0 0 450 0 450 -322 0 c-278 0 -328
-3 -356 -17z"/>
    </g>
</svg>