<svg xmlns="http://www.w3.org/2000/svg" viewBox="0 0 500 500">
    <g transform="translate(0,500) scale(0.1,-0.1)" fill="white" stroke="none">
        <path d="M2344 4696 c-92 -30 -175 -81 -243 -149 -54 -54 -89 -113 -494 -822
-44 -77 -97 -169 -117 -205 -20 -36 -63 -110 -95 -165 -32 -55 -78 -136 -103
-180 -24 -44 -87 -154 -140 -245 -140 -242 -878 -1532 -929 -1623 -24 -43 -54
-95 -67 -116 -46 -73 -86 -162 -101 -223 -20 -83 -19 -230 1 -299 37 -128 147
-261 269 -326 129 -68 -32 -64 2207 -61 l2023 3 56 23 c73 29 185 108 225 158
95 119 128 222 122 378 -6 134 -18 171 -106 326 -36 63 -76 135 -90 160 -14
25 -33 57 -43 72 -11 14 -19 28 -19 31 0 3 -32 60 -72 128 -39 68 -115 201
-168 294 -53 94 -157 276 -232 405 -74 129 -150 262 -168 295 -18 33 -36 65
-41 70 -4 6 -43 73 -86 150 -44 77 -185 325 -315 551 -130 226 -250 437 -268
470 -18 32 -43 75 -55 94 -12 19 -91 157 -175 305 -84 149 -169 292 -189 318
-39 53 -124 123 -186 154 -115 58 -275 70 -401 29z m311 -187 c99 -48 145
-111 345 -469 20 -36 144 -252 275 -480 131 -228 249 -435 263 -460 13 -25 37
-65 52 -90 15 -25 85 -146 155 -270 71 -124 136 -238 145 -255 201 -349 339
-591 363 -635 16 -30 33 -59 37 -65 5 -5 112 -191 238 -412 150 -263 234 -421
242 -454 18 -75 9 -195 -20 -255 -31 -63 -116 -149 -177 -177 l-48 -22 -2020
0 -2020 0 -58 27 c-68 32 -145 108 -177 175 -32 67 -39 199 -15 274 10 30 63
133 118 229 55 96 127 222 160 280 33 58 78 137 101 175 22 39 48 84 57 100 9
17 67 118 129 225 62 107 128 224 148 260 19 36 38 70 42 75 4 6 203 352 443
770 239 418 466 814 504 880 38 66 72 127 76 135 3 8 48 87 99 175 107 182
159 235 271 274 85 29 201 25 272 -10z"/>
        <path d="M1238 1451 c-36 -12 -78 -42 -171 -123 l-77 -68 -160 0 -161 0 3 -92
3 -93 145 -3 c204 -4 246 10 364 118 49 44 99 83 112 86 29 7 59 -11 155 -95
122 -107 118 -106 439 -106 l275 0 50 27 c28 14 83 56 122 92 122 110 124 110
252 -3 134 -118 126 -116 491 -116 l305 0 55 28 c30 15 83 54 116 86 119 114
130 114 243 10 42 -38 101 -82 131 -97 53 -26 60 -27 225 -27 l170 0 3 93 3
92 -158 0 c-180 0 -167 -4 -272 93 -143 132 -263 141 -400 29 -25 -20 -48 -40
-49 -45 -2 -4 -24 -23 -49 -42 l-46 -35 -281 0 c-318 0 -287 -7 -393 91 -34
31 -87 69 -117 84 -49 24 -65 27 -121 23 -76 -7 -108 -24 -224 -125 l-84 -73
-244 0 c-166 0 -251 4 -266 12 -12 6 -53 40 -92 75 -38 36 -87 74 -109 85 -45
23 -145 33 -188 19z"/>
    </g>
</svg>