<svg xmlns="http://www.w3.org/2000/svg" viewBox="0 0 532 532">
    <g transform="translate(0,532) scale(0.1,-0.1)" fill="white" stroke="none">
        <path d="M2100 5169 c-416 -86 -703 -216 -1035 -468 -132 -100 -397 -367 -509
-511 -161 -208 -321 -467 -412 -669 l-44 -96 0 -1644 0 -1643 23 5 c12 3 465
85 1007 182 542 96 997 178 1013 181 l27 6 0 899 0 899 123 0 122 0 -2 403 c0
221 -2 414 -2 430 l-1 27 -120 0 -120 0 0 1005 c0 798 -3 1005 -12 1004 -7 -1
-33 -5 -58 -10z m-120 -1778 c0 -1477 -1 -1560 -17 -1565 -18 -5 -254 -46
-267 -46 -3 0 -6 693 -6 1539 l0 1539 72 28 c90 34 178 62 201 63 16 1 17 -80
17 -1558z m-473 -138 l-2 -1508 -120 -22 c-66 -12 -128 -22 -137 -23 -17 0
-18 75 -18 1448 l0 1448 93 60 c123 82 160 104 174 104 9 0 11 -360 10 -1507z
m-467 -206 l0 -1384 -123 -21 c-68 -12 -131 -22 -140 -22 -16 0 -17 84 -17
1264 l0 1264 83 94 c82 90 181 188 192 188 3 0 5 -623 5 -1383z m-462 -1463
c-2 -1 -57 -12 -123 -23 -66 -12 -130 -24 -143 -26 l-22 -5 0 934 0 934 25 55
c42 90 122 235 193 347 l67 105 3 -1159 c1 -638 1 -1160 0 -1162z m1402 -432
l0 -489 -127 -22 c-71 -12 -136 -24 -145 -27 -17 -5 -18 23 -18 485 l0 490 53
10 c120 24 203 39 220 40 16 1 17 -29 17 -487z m-472 -76 c1 -349 -3 -478 -11
-489 -7 -8 -57 -21 -117 -31 -58 -10 -115 -20 -127 -23 l-23 -5 0 490 0 491
33 6 c162 30 233 41 239 38 3 -2 6 -216 6 -477z m-468 -89 l0 -492 -127 -23
c-71 -12 -134 -22 -140 -22 -10 0 -13 104 -13 485 0 448 1 486 17 492 9 4 71
17 138 29 66 12 121 22 123 23 1 0 2 -221 2 -492z m-460 -85 l0 -489 -127 -22
c-71 -12 -136 -25 -145 -27 -17 -5 -18 23 -18 488 l0 494 118 21 c64 11 129
21 145 22 l27 1 0 -488z"/>
        <path d="M3150 2846 l0 -2334 28 -6 c15 -3 470 -85 1012 -181 542 -97 995
-179 1008 -182 l22 -5 0 1643 0 1644 -48 105 c-95 208 -265 480 -428 685 -105
131 -335 364 -454 459 -328 260 -661 415 -1060 492 -41 7 -76 14 -77 14 -2 0
-3 -1050 -3 -2334z m280 2084 c36 -12 95 -32 133 -46 l67 -26 0 -1539 c0 -846
-1 -1539 -2 -1539 -2 0 -64 11 -138 25 -74 14 -138 25 -142 25 -5 0 -8 702 -8
1560 0 1241 3 1560 13 1560 6 0 41 -9 77 -20z m439 -192 c20 -11 78 -48 129
-82 l92 -60 0 -1448 c0 -796 -1 -1448 -3 -1448 -6 0 -232 40 -254 45 l-23 5 0
1505 c0 1114 3 1505 11 1505 7 0 28 -10 48 -22z m517 -400 c39 -40 94 -99 122
-131 l52 -59 0 -1264 c0 -1197 -1 -1264 -17 -1263 -10 0 -72 10 -138 22 l-120
22 -3 1383 c-2 1315 -1 1382 15 1373 10 -5 50 -43 89 -83z m439 -558 c36 -58
97 -167 136 -242 l69 -137 0 -933 0 -934 -145 25 -145 25 0 1160 c0 705 4
1156 9 1151 5 -6 39 -57 76 -115z m-1320 -2163 l120 -22 3 -493 c2 -467 1
-493 -15 -488 -10 3 -75 15 -145 27 l-128 22 0 489 0 488 23 -1 c12 0 76 -10
142 -22z m455 -81 l125 -22 3 -493 2 -493 -27 6 c-16 3 -68 12 -118 21 -49 9
-100 18 -112 21 l-23 4 0 490 c0 386 3 490 13 489 6 0 68 -10 137 -23z m430
-76 c36 -6 89 -15 118 -21 l52 -10 0 -490 c0 -384 -3 -489 -12 -489 -7 0 -70
10 -140 22 l-128 23 0 493 0 494 23 -5 c12 -3 51 -11 87 -17z m509 -90 c63
-11 118 -20 123 -20 4 0 8 -223 8 -495 l0 -495 -22 5 c-33 7 -250 45 -260 45
-4 0 -8 223 -8 495 l0 495 23 -5 c12 -3 73 -14 136 -25z"/>
    </g>
</svg>